<svg xmlns="http://www.w3.org/2000/svg" width="24" height="24" viewBox="0 0 24 24" fill="#ffffff"><path d="M12 2a10 10 0 0 0-3.16 19.49c.5.09.68-.22.68-.48v-1.7c-2.78.6-3.37-1.34-3.37-1.34-.45-1.16-1.1-1.47-1.1-1.47-.9-.62.07-.6.07-.6 1 .07 1.53 1.03 1.53 1.03.9 1.52 2.34 1.08 2.91.83.1-.65.35-1.08.63-1.33-2.22-.25-4.56-1.11-4.56-4.94 0-1.1.39-2 1.03-2.7-.1-.25-.45-1.28.1-2.66 0 0 .84-.27 2.75 1.03a9.5 9.5 0 0 1 5 0c1.91-1.3 2.75-1.03 2.75-1.03.55 1.38.2 2.41.1 2.66.64.7 1.03 1.6 1.03 2.7 0 3.85-2.34 4.69-4.57 4.94.36.31.68.92.68 1.86v2.76c0 .27.18.58.69.48A10 10 0 0 0 12 2z"/></svg>