<svg xmlns="http://www.w3.org/2000/svg" width="24" height="24" viewBox="0 0 24 24"><path d="M12 2.2a2 2 0 0 1 .9.21l7.3 3.65a1 1 0 0 1 0 1.78L12.9 11.5a2 2 0 0 1-1.8 0L3.8 7.84a1 1 0 0 1 0-1.78L11.1 2.4a2 2 0 0 1 .9-.2z" fill="#ffffff"/><path d="M3.35 11.16a1 1 0 0 1 1.34-.45l6.41 3.2a2 2 0 0 0 1.8 0l6.41-3.2a1 1 0 0 1 .89 1.79l-6.4 3.2a4 4 0 0 1-3.6 0l-6.4-3.2a1 1 0 0 1-.45-1.34z" fill="#ffffff" opacity="0.75"/><path d="M3.35 15.66a1 1 0 0 1 1.34-.45l6.41 3.2a2 2 0 0 0 1.8 0l6.41-3.2a1 1 0 0 1 .89 1.79l-6.4 3.2a4 4 0 0 1-3.6 0l-6.4-3.2a1 1 0 0 1-.45-1.34z" fill="#ffffff" opacity="0.5"/></svg>